<svg xmlns="http://www.w3.org/2000/svg" viewBox="0 0 64 64" role="img" aria-label="竞彩足球">
  <defs>
    <linearGradient id="background" x1="8" y1="6" x2="56" y2="58" gradientUnits="userSpaceOnUse">
      <stop stop-color="#2563eb"/>
      <stop offset="1" stop-color="#0f766e"/>
    </linearGradient>
  </defs>
  <rect x="3" y="3" width="58" height="58" rx="14" fill="url(#background)"/>
  <path d="M13 17h38v8a7 7 0 0 0 0 14v8H13v-8a7 7 0 0 0 0-14z" fill="#fff" opacity=".18"/>
  <circle cx="32" cy="32" r="17" fill="#fff"/>
  <path d="m32 21 6.2 4.5-2.4 7.3h-7.6l-2.4-7.3z" fill="#0f172a"/>
  <path d="m32 15.2-5.6 4.1M18 22l6.8 3.4m-9.7 8.7 7.1 5.1m3.4 8.4 2.6-8.8m10.2 8.8-2.6-8.8m13.1-4.7-7.1 5.1M46 22l-6.8 3.4M32 48.8l6.4-1.2M32 48.8l-6.4-1.2" fill="none" stroke="#0f172a" stroke-width="2.7" stroke-linecap="round" stroke-linejoin="round"/>
  <path d="m18 22-2.9 12.1 3 8.2 7.5 5.3h12.8l7.5-5.3 3-8.2L46 22l-7.6-6.8H25.6z" fill="none" stroke="#0f172a" stroke-width="2.1" stroke-linecap="round" stroke-linejoin="round"/>
</svg>
